<svg id="Group_42" data-name="Group 42" xmlns="http://www.w3.org/2000/svg" width="42" height="42" viewBox="0 0 42 42">
  <path id="Path_15" data-name="Path 15" d="M16.5,24H27M6,31V13.5A3.5,3.5,0,0,1,9.5,10H20l3.5,3.5H34A3.5,3.5,0,0,1,37.5,17V31A3.5,3.5,0,0,1,34,34.5H9.5A3.5,3.5,0,0,1,6,31Z" transform="translate(-0.75 -1.25)" fill="none" stroke="#fff" stroke-linecap="round" stroke-linejoin="round" stroke-width="3"/>
  <path id="Path_16" data-name="Path 16" d="M0,0H42V42H0Z" fill="none"/>
  <path id="Path_17" data-name="Path 17" d="M16.5,24H27M6,31V13.5A3.5,3.5,0,0,1,9.5,10H20l3.5,3.5H34A3.5,3.5,0,0,1,37.5,17V31A3.5,3.5,0,0,1,34,34.5H9.5A3.5,3.5,0,0,1,6,31Z" transform="translate(-0.75 -1.25)" fill="none" stroke="#fff" stroke-linecap="round" stroke-linejoin="round" stroke-width="3"/>
  <line id="Line_3" data-name="Line 3" y2="9.625" transform="translate(21 17.938)" fill="none" stroke="#fff" stroke-linecap="round" stroke-width="3"/>
</svg>
