<svg xmlns="http://www.w3.org/2000/svg" width="19.25" height="27.495" viewBox="0 0 19.25 27.495">
  <g id="Group_38" data-name="Group 38" transform="translate(0 -1.182)">
    <path id="Path_14" data-name="Path 14" d="M11.571,14.1l1.946-1.946A1.376,1.376,0,0,0,11.571,10.2L9.625,12.149,7.679,10.2a1.376,1.376,0,0,0-1.946,1.946L7.679,14.1,5.734,16.034a1.376,1.376,0,1,0,1.946,1.946l1.946-1.946,1.946,1.946a1.372,1.372,0,0,0,1.925-.014,1.386,1.386,0,0,0,.021-1.932ZM4.125,1.72h11A4.124,4.124,0,0,1,19.25,5.845V26.47A2.754,2.754,0,0,1,14.644,28.5l-4.091-3.733a1.374,1.374,0,0,0-1.856,0L4.606,28.5A2.754,2.754,0,0,1,0,26.47V5.845A4.124,4.124,0,0,1,4.125,1.72Z" transform="translate(0 -0.538)" fill="#d61e50"/>
  </g>
</svg>
