<svg id="Icon_ion-bookmarks" data-name="Icon ion-bookmarks" xmlns="http://www.w3.org/2000/svg" width="18.066" height="22.237" viewBox="0 0 18.066 22.237">
  <path id="Path_1" data-name="Path 1" d="M20.436,0H10.708A2.784,2.784,0,0,0,8.016,2.085h9.9A3.214,3.214,0,0,1,21.131,5.3V18.539l.955.764a.7.7,0,0,0,.84.022.713.713,0,0,0,.289-.583V2.779A2.779,2.779,0,0,0,20.436,0Z" transform="translate(-5.149)" fill="#d6991e"/>
  <path id="Path_2" data-name="Path 2" d="M15.187,5.625H6.154A2.779,2.779,0,0,0,3.375,8.4v15.27a.71.71,0,0,0,.287.581.7.7,0,0,0,.856-.031l6.153-5.184,6.153,5.182a.7.7,0,0,0,.851.034.712.712,0,0,0,.291-.584V8.4a2.779,2.779,0,0,0-2.779-2.779Z" transform="translate(-3.375 -2.151)" fill="#d6991e"/>
</svg>
