<svg xmlns="http://www.w3.org/2000/svg" width="30.105" height="26.418" viewBox="0 0 30.105 26.418">
  <path id="Icon_fa-solid-hand-holding-heart" data-name="Icon fa-solid-hand-holding-heart" d="M8.567,7.274a4.032,4.032,0,0,1,0-5.645,3.893,3.893,0,0,1,5.561,0l.925.941.925-.941a3.893,3.893,0,0,1,5.561,0,4.032,4.032,0,0,1,0,5.645l-5.31,5.394a1.653,1.653,0,0,1-2.352,0ZM29.7,17.7a2.088,2.088,0,0,1-.444,2.922l-6.617,4.876a7.115,7.115,0,0,1-4.218,1.385H1.673A1.671,1.671,0,0,1,0,25.206V21.861a1.671,1.671,0,0,1,1.673-1.673H3.6l2.347-1.882a6.677,6.677,0,0,1,4.181-1.463H18.4a1.673,1.673,0,0,1,0,3.345H14.217a.836.836,0,0,0,0,1.673h6.3l6.256-4.61A2.088,2.088,0,0,1,29.7,17.7ZM10.119,20.189h0Z" transform="translate(0 -0.461)" fill="#ffb000"/>
</svg>
