<svg xmlns="http://www.w3.org/2000/svg" width="25.805" height="19.532" viewBox="0 0 25.805 19.532">
  <g id="Icon_material-round-menu-book" data-name="Icon material-round-menu-book" transform="translate(-1.5 -6.75)">
    <path id="Path_5" data-name="Path 5" d="M20.862,6.75a10.914,10.914,0,0,0-6.454,1.76A10.914,10.914,0,0,0,7.954,6.75a12.7,12.7,0,0,0-5.022.927A2.391,2.391,0,0,0,1.5,9.848V23.085a2.341,2.341,0,0,0,2.91,2.277,14.493,14.493,0,0,1,3.544-.422,12.409,12.409,0,0,1,5.351,1.08,2.412,2.412,0,0,0,2.194,0,12.24,12.24,0,0,1,5.351-1.08,14.493,14.493,0,0,1,3.544.422,2.33,2.33,0,0,0,2.91-2.277V9.848a2.391,2.391,0,0,0-1.432-2.171,12.6,12.6,0,0,0-5.011-.927Zm4.107,14.938a1.185,1.185,0,0,1-1.408,1.15,14.8,14.8,0,0,0-2.7-.235,14.135,14.135,0,0,0-6.454,1.76V10.857A14.135,14.135,0,0,1,20.862,9.1a14.887,14.887,0,0,1,3.168.329,1.19,1.19,0,0,1,.939,1.15V21.688Z" fill="#722ddb"/>
    <path id="Path_6" data-name="Path 6" d="M20.726,15.862a.878.878,0,0,1-.27-1.713,15.611,15.611,0,0,1,6.29-.528.88.88,0,0,1-.2,1.748A13.871,13.871,0,0,0,21,15.827,2.44,2.44,0,0,1,20.726,15.862Zm0,3.121a.878.878,0,0,1-.27-1.713,15.592,15.592,0,0,1,6.29-.528.88.88,0,0,1-.2,1.748A13.871,13.871,0,0,0,21,18.948,1.138,1.138,0,0,1,20.726,18.983Zm0,3.121a.878.878,0,0,1-.27-1.713,15.592,15.592,0,0,1,6.29-.528.88.88,0,0,1-.2,1.748A13.871,13.871,0,0,0,21,22.07,1.138,1.138,0,0,1,20.726,22.1Z" transform="translate(-3.994 -1.473)" fill="#722ddb"/>
  </g>
</svg>
