<svg xmlns="http://www.w3.org/2000/svg" width="25.014" height="19.128" viewBox="0 0 25.014 19.128">
  <path id="Icon_fa-solid-book-open" data-name="Icon fa-solid-book-open" d="M10.84,21.336a.728.728,0,0,0,.973-.673V4.274A.593.593,0,0,0,11.6,3.8,9.093,9.093,0,0,0,6.254,2.25,15.978,15.978,0,0,0,.786,3.3,1.271,1.271,0,0,0,0,4.5V20.581a.8.8,0,0,0,1.047.717,18.631,18.631,0,0,1,5.207-.981A15.671,15.671,0,0,1,10.84,21.336Zm3.335,0a15.671,15.671,0,0,1,4.586-1.021,18.631,18.631,0,0,1,5.207.981.8.8,0,0,0,1.047-.717V4.5a1.261,1.261,0,0,0-.786-1.2A15.864,15.864,0,0,0,18.761,2.25,9.093,9.093,0,0,0,13.419,3.8a.606.606,0,0,0-.217.478v16.39a.729.729,0,0,0,.973.673Z" transform="translate(0 -2.25)" fill="#1e24d6"/>
</svg>
