<svg xmlns="http://www.w3.org/2000/svg" width="19.456" height="22.235" viewBox="0 0 19.456 22.235">
  <path id="Icon_fa-solid-book-quran" data-name="Icon fa-solid-book-quran" d="M15.287,0a4.17,4.17,0,0,1,4.169,4.169v13.9a4.17,4.17,0,0,1-4.169,4.169H1.39a1.39,1.39,0,0,1,0-2.779V16.676A1.388,1.388,0,0,1,0,15.287V1.39A1.388,1.388,0,0,1,1.39,0Zm0,16.676H4.169v2.779H15.287a1.39,1.39,0,1,0,0-2.779ZM11.9,6.523l-.387.929-1,.083a.277.277,0,0,0-.161.486l.764.656-.235.981a.278.278,0,0,0,.417.3l.86-.525.86.525a.278.278,0,0,0,.417-.3L13.2,8.677l.764-.656a.277.277,0,0,0-.161-.486l-1-.083-.387-.929a.276.276,0,0,0-.512,0ZM4.169,8.338a5.559,5.559,0,0,0,8.577,4.668.351.351,0,0,0,.135-.421.346.346,0,0,0-.391-.208,4.287,4.287,0,0,1-.825.083,4.121,4.121,0,0,1,0-8.243,4.322,4.322,0,0,1,.825.083.349.349,0,0,0,.391-.208.341.341,0,0,0-.135-.421A5.559,5.559,0,0,0,4.169,8.338Z" fill="#0f9169"/>
</svg>
