<svg xmlns="http://www.w3.org/2000/svg" width="29.215" height="30" viewBox="0 0 29.215 30">
  <path id="Icon_ion-settings-sharp" data-name="Icon ion-settings-sharp" d="M16.859,11.611a5.217,5.217,0,1,0,5.217,5.217,5.217,5.217,0,0,0-5.217-5.217Zm11.264,5.217a10.8,10.8,0,0,1-.107,1.457l3.175,2.486a.756.756,0,0,1,.172.964l-3,5.186a.759.759,0,0,1-.922.322l-3.734-1.5a11.515,11.515,0,0,1-2.532,1.478l-.558,3.964a.778.778,0,0,1-.751.643H13.855a.783.783,0,0,1-.751-.622l-.558-3.964a11.041,11.041,0,0,1-2.532-1.48l-3.734,1.5a.759.759,0,0,1-.922-.321l-3-5.185a.756.756,0,0,1,.172-.964L5.7,18.307a11.386,11.386,0,0,1-.107-1.478A10.8,10.8,0,0,1,5.7,15.371L2.526,12.885a.756.756,0,0,1-.172-.964l3-5.186a.759.759,0,0,1,.922-.322l3.734,1.5a11.515,11.515,0,0,1,2.532-1.478L13.1,2.471a.778.778,0,0,1,.751-.643h6.008a.783.783,0,0,1,.751.622l.558,3.964a11.041,11.041,0,0,1,2.535,1.48l3.73-1.5a.759.759,0,0,1,.922.321l3,5.186a.756.756,0,0,1-.172.964L28.016,15.35A11.386,11.386,0,0,1,28.123,16.828Z" transform="translate(-2.251 -1.828)" fill="#fff"/>
</svg>
