<svg xmlns="http://www.w3.org/2000/svg" width="24" height="24.645" viewBox="0 0 24 24.645">
  <path id="Icon_ion-settings-sharp" data-name="Icon ion-settings-sharp" d="M14.251,9.865a4.286,4.286,0,1,0,4.286,4.286,4.286,4.286,0,0,0-4.286-4.286ZM23.5,14.151a8.869,8.869,0,0,1-.088,1.2l2.609,2.042a.621.621,0,0,1,.141.792L23.7,22.442a.624.624,0,0,1-.758.264l-3.067-1.232a9.459,9.459,0,0,1-2.08,1.215l-.459,3.256a.639.639,0,0,1-.617.528H11.784a.643.643,0,0,1-.617-.511l-.459-3.256a9.071,9.071,0,0,1-2.08-1.216L5.561,22.723a.624.624,0,0,1-.758-.264L2.336,18.2a.621.621,0,0,1,.141-.792l2.609-2.042A9.353,9.353,0,0,1,5,14.151a8.868,8.868,0,0,1,.088-1.2L2.477,10.911a.621.621,0,0,1-.141-.792L4.8,5.859A.624.624,0,0,1,5.561,5.6L8.629,6.827a9.459,9.459,0,0,1,2.08-1.215l.459-3.256a.639.639,0,0,1,.617-.528h4.935a.643.643,0,0,1,.617.511L17.794,5.6a9.07,9.07,0,0,1,2.082,1.216l3.065-1.232a.624.624,0,0,1,.758.264l2.468,4.26a.621.621,0,0,1-.141.792l-2.609,2.042A9.353,9.353,0,0,1,23.5,14.151Z" transform="translate(-2.251 -1.828)" fill="#dfa913"/>
</svg>
