<svg xmlns="http://www.w3.org/2000/svg" width="33" height="33" viewBox="0 0 33 33">
  <g id="Group_50" data-name="Group 50" transform="translate(-374.375 -55.375)">
    <path id="Path_23" data-name="Path 23" d="M21,36A15,15,0,1,1,36,21,15,15,0,0,1,21,36Z" transform="translate(369.875 50.875)" fill="none" stroke="#fff" stroke-width="3"/>
    <path id="Path_24" data-name="Path 24" d="M27.234,16.5a1.191,1.191,0,0,0-1.193,1.193v3.952l-8.325-5.033a.8.8,0,0,0-1.217.7v10.3a.792.792,0,0,0,.406.7.782.782,0,0,0,.811-.008l8.325-5.025v3.952a1.193,1.193,0,0,0,2.385,0V17.693A1.191,1.191,0,0,0,27.234,16.5Z" transform="translate(368.411 49.411)" fill="#fff"/>
  </g>
</svg>
